Coordinates
version=1
nRows=5
nColumns=46
inDegrees=yes

Units are S.I. units (second, meters, Newtons, ...)
Angles are in degrees.

endheader
time	pelvis_tilt	pelvis_list	pelvis_rotation	pelvis_tx	pelvis_ty	pelvis_tz	bb_angle	bb_tx	bb_ty	bb_tz	hip_flexion_r	hip_adduction_r	hip_rotation_r	knee_angle_r	knee_angle_r_beta	ankle_angle_r	subtalar_angle_r	mtp_angle_r	crank_angle_r	hip_flexion_l	hip_adduction_l	hip_rotation_l	knee_angle_l	knee_angle_l_beta	ankle_angle_l	subtalar_angle_l	mtp_angle_l	crank_angle_l	lumbar_extension	lumbar_bending	lumbar_rotation	arm_flex_r	arm_add_r	arm_rot_r	elbow_flex_r	pro_sup_r	wrist_flex_r	wrist_dev_r	arm_flex_l	arm_add_l	arm_rot_l	elbow_flex_l	pro_sup_l	wrist_flex_l	wrist_dev_l
      2.50500000	    -38.43822920	      2.39531880	    -12.89939385	      0.27112643	      1.08464258	     -0.17638738	      0.00000000	      0.50000000	      0.00000000	      0.25000000	     85.90670046	      5.38474352	      2.21671151	     82.47266832	      1.43941961	     22.05666888	     -3.93971929	      0.00000000	      0.00000000	     38.12608696	    -12.00285477	    -10.65915284	     22.33941517	      0.38989635	    -36.42171749	     -2.67785439	      0.00000000	      0.00000000	    -37.88270884	      1.95372226	      4.83351066	     67.58988636	    -13.06716437	     54.85666836	     60.80034127	     54.03932374	      0.00000000	      0.00000000	     43.49689183	    -24.02234450	     13.75170877	     69.59993927	     47.65473045	      0.00000000	      0.00000000
      2.51000000	    -38.38722633	      2.33370642	    -12.42726225	      0.27149300	      1.08637646	     -0.17551724	      0.00000000	      0.50000000	      0.00000000	      0.25000000	     85.22640119	      5.27045802	      2.22545616	     80.97384357	      1.41326018	     21.36534359	     -4.66902981	      0.00000000	      0.00000000	     38.74622797	    -11.79240526	     -9.42278041	     23.72327239	      0.41404921	    -36.61024531	     -3.51563414	      0.00000000	      0.00000000	    -38.23982968	      2.22626447	      4.46094645	     67.45762836	    -12.80063398	     54.42757547	     61.04186940	     54.01534557	      0.00000000	      0.00000000	     43.78588674	    -24.23707497	     13.88392361	     69.17693992	     47.63084471	      0.00000000	      0.00000000
      2.51500000	    -38.29652176	      2.29760474	    -11.90511307	      0.27191394	      1.08794046	     -0.17488640	      0.00000000	      0.50000000	      0.00000000	      0.25000000	     84.52973062	      5.06439561	      2.25693128	     79.50005815	      1.38753777	     20.58749850	     -5.50932911	      0.00000000	      0.00000000	     39.31814116	    -11.48683128	     -8.16467189	     25.08318397	      0.43778415	    -36.73419807	     -4.26523710	      0.00000000	      0.00000000	    -38.55901977	      2.57398549	      4.09420210	     67.17322265	    -12.54565355	     53.76100189	     61.37889432	     53.97508808	      0.00000000	      0.00000000	     44.05196234	    -24.50521266	     14.14817428	     68.73051036	     47.63137074	      0.00000000	      0.00000000
      2.52000000	    -38.11036522	      2.29356746	    -11.37925593	      0.27226436	      1.08931474	     -0.17404540	      0.00000000	      0.50000000	      0.00000000	      0.25000000	     83.79004245	      4.84660218	      2.36094077	     78.14328146	      1.36385755	     19.73827342	     -6.13913384	      0.00000000	      0.00000000	     39.82356393	    -11.16286587	     -7.04372186	     26.51274414	      0.46273468	    -36.81245302	     -4.85867522	      0.00000000	      0.00000000	    -38.92313383	      2.80950196	      3.79367955	     66.61395316	    -12.24154442	     52.69152235	     61.80129467	     53.88969450	      0.00000000	      0.00000000	     44.56773179	    -24.87854800	     14.78350115	     68.25570603	     47.70558930	      0.00000000	      0.00000000
      2.52500000	    -37.79293875	      2.31110340	    -10.99658886	      0.27282192	      1.09071427	     -0.17318842	      0.00000000	      0.50000000	      0.00000000	      0.25000000	     82.89517970	      4.70076989	      2.56070902	     76.80159201	      1.34044065	     19.14465577	     -6.16931146	      0.00000000	      0.00000000	     40.16854880	    -10.90881156	     -6.25500469	     28.02829912	      0.48918610	    -36.69618606	     -5.46879989	      0.00000000	      0.00000000	    -39.43031724	      2.93498344	      3.53356670	     66.44809890	    -12.11175012	     52.31365028	     62.07770508	     53.87958280	      0.00000000	      0.00000000	     44.90501950	    -25.07339418	     14.94991136	     68.08437476	     47.72205563	      0.00000000	      0.00000000
